<svg width="501" height="501" viewBox="0 0 501 501" fill="none" xmlns="http://www.w3.org/2000/svg">
<circle cx="250.5" cy="250.5" r="250.5" fill="#8758EB"/>
<path d="M111.904 452V78H175.404V147.5C183.404 122.167 196.738 103 215.404 90C234.404 76.6667 256.571 70 281.904 70C307.238 70 329.238 76.1667 347.904 88.5C366.904 100.5 381.571 117 391.904 138C402.571 159 407.904 182.667 407.904 209V220.5C407.904 246.833 402.904 270.667 392.904 292C382.904 313.333 368.571 330.167 349.904 342.5C331.238 354.833 308.571 361 281.904 361C263.238 361 246.071 357.5 230.404 350.5C214.738 343.5 201.904 332.833 191.904 318.5V452H111.904ZM259.404 294C279.738 294 296.071 286.667 308.404 272C321.071 257.333 327.404 238.167 327.404 214.5C327.404 191.167 321.071 172.333 308.404 158C296.071 143.667 279.738 136.5 259.404 136.5C247.071 136.5 235.571 139.333 224.904 145C214.571 150.667 206.071 158.833 199.404 169.5C193.071 180.167 189.904 192.833 189.904 207.5V226C189.904 240.333 193.238 252.667 199.904 263C206.904 273 215.738 280.667 226.404 286C237.071 291.333 248.071 294 259.404 294Z" fill="white"/>
</svg>
